<svg width="14" height="13" viewBox="0 0 14 13" fill="none" xmlns="http://www.w3.org/2000/svg">
<path fill-rule="evenodd" clip-rule="evenodd" d="M2 4L4.5 1.5L7 4L9.5 1.5L12 4L9.5 6.5L12 9L9.5 11.5L7 9L4.5 11.5L2 9L4.5 6.5L2 4Z" fill="black"/>
<path d="M4.5 1.5L5.20711 0.792893L4.5 0.0857865L3.79289 0.792893L4.5 1.5ZM2 4L1.29289 3.29289L0.585786 4L1.29289 4.70711L2 4ZM7 4L6.29289 4.70711L7 5.41421L7.70711 4.70711L7 4ZM9.5 1.5L10.2071 0.792893L9.5 0.0857865L8.79289 0.792893L9.5 1.5ZM12 4L12.7071 4.70711L13.4142 4L12.7071 3.29289L12 4ZM9.5 6.5L8.79289 5.79289L8.08579 6.5L8.79289 7.20711L9.5 6.5ZM12 9L12.7071 9.70711L13.4142 9L12.7071 8.29289L12 9ZM9.5 11.5L8.79289 12.2071L9.5 12.9142L10.2071 12.2071L9.5 11.5ZM7 9L7.70711 8.29289L7 7.58579L6.29289 8.29289L7 9ZM4.5 11.5L3.79289 12.2071L4.5 12.9142L5.20711 12.2071L4.5 11.5ZM2 9L1.29289 8.29289L0.585786 9L1.29289 9.70711L2 9ZM4.5 6.5L5.20711 7.20711L5.91421 6.5L5.20711 5.79289L4.5 6.5ZM3.79289 0.792893L1.29289 3.29289L2.70711 4.70711L5.20711 2.20711L3.79289 0.792893ZM7.70711 3.29289L5.20711 0.792893L3.79289 2.20711L6.29289 4.70711L7.70711 3.29289ZM7.70711 4.70711L10.2071 2.20711L8.79289 0.792893L6.29289 3.29289L7.70711 4.70711ZM8.79289 2.20711L11.2929 4.70711L12.7071 3.29289L10.2071 0.792893L8.79289 2.20711ZM11.2929 3.29289L8.79289 5.79289L10.2071 7.20711L12.7071 4.70711L11.2929 3.29289ZM12.7071 8.29289L10.2071 5.79289L8.79289 7.20711L11.2929 9.70711L12.7071 8.29289ZM10.2071 12.2071L12.7071 9.70711L11.2929 8.29289L8.79289 10.7929L10.2071 12.2071ZM6.29289 9.70711L8.79289 12.2071L10.2071 10.7929L7.70711 8.29289L6.29289 9.70711ZM6.29289 8.29289L3.79289 10.7929L5.20711 12.2071L7.70711 9.70711L6.29289 8.29289ZM5.20711 10.7929L2.70711 8.29289L1.29289 9.70711L3.79289 12.2071L5.20711 10.7929ZM2.70711 9.70711L5.20711 7.20711L3.79289 5.79289L1.29289 8.29289L2.70711 9.70711ZM1.29289 4.70711L3.79289 7.20711L5.20711 5.79289L2.70711 3.29289L1.29289 4.70711Z" fill="#E1EAF0"/>
</svg>
